<?xml version="1.0" standalone="no"?>
<!DOCTYPE svg PUBLIC "-//W3C//DTD SVG 20010904//EN"
 "http://www.w3.org/TR/2001/REC-SVG-20010904/DTD/svg10.dtd">
<svg version="1.0" xmlns="http://www.w3.org/2000/svg"
 width="451.000000pt" height="392.000000pt" viewBox="0 0 451.000000 392.000000"
 preserveAspectRatio="xMidYMid meet">

<g transform="translate(0.000000,392.000000) scale(0.100000,-0.100000)"
fill="#000000" stroke="none">
<path d="M2619 3369 c-111 -12 -217 -48 -302 -100 l-82 -51 -90 21 c-107 25
-166 27 -249 5 -90 -23 -155 -65 -252 -161 -68 -67 -95 -88 -128 -95 -61 -14
-104 -53 -138 -124 -24 -52 -29 -75 -29 -141 -1 -138 22 -212 104 -342 47 -75
101 -143 158 -201 98 -99 169 -221 169 -291 0 -43 49 -161 80 -195 18 -18 29
-20 103 -16 64 3 91 1 115 -12 17 -9 40 -16 52 -16 11 0 32 -7 45 -16 17 -11
33 -14 52 -9 16 4 44 7 64 6 54 -3 59 10 45 119 -8 60 -14 87 -18 72 -4 -13
-2 -51 3 -85 12 -89 13 -87 -25 -87 -38 0 -39 1 -55 93 -21 119 11 194 73 166
14 -7 26 -18 26 -24 0 -7 15 2 34 20 19 17 107 80 197 140 193 128 352 267
388 341 13 27 34 63 46 80 52 70 129 275 156 415 9 45 8 66 -5 109 -9 30 -16
72 -16 94 0 74 -45 126 -209 243 -52 37 -57 38 -155 43 -57 3 -127 2 -157 -1z
m296 -55 c83 -57 165 -125 183 -152 9 -14 19 -48 23 -76 3 -28 12 -79 19 -113
13 -59 13 -65 -19 -180 -36 -128 -90 -261 -125 -308 -12 -16 -33 -51 -45 -77
-44 -93 -164 -198 -422 -371 -148 -99 -190 -122 -204 -115 -9 6 -31 7 -48 4
-18 -3 -81 -6 -142 -5 -139 1 -200 0 -222 -1 -10 0 -40 1 -66 3 l-48 3 -41 84
c-32 66 -59 102 -125 170 -55 55 -112 128 -163 207 -84 132 -95 166 -106 323
-6 72 -4 78 33 150 32 63 45 78 83 98 36 18 56 22 98 18 75 -7 125 -35 225
-127 102 -94 119 -93 20 2 -95 91 -135 119 -190 133 l-48 13 72 74 c152 157
294 199 498 148 l84 -21 78 49 c129 83 256 114 433 106 111 -5 117 -6 165 -39z
m-1046 -1410 c24 -5 31 -12 31 -30 0 -14 11 -57 25 -96 14 -39 25 -72 25 -74
0 -7 -51 -13 -65 -8 -9 4 -27 29 -42 57 -69 137 -63 169 26 151z m147 -6 c4
-7 7 -32 5 -57 -1 -26 5 -68 13 -96 8 -27 14 -50 13 -51 -1 0 -19 1 -39 3 -33
5 -38 9 -57 57 -11 28 -25 70 -30 94 -7 35 -6 44 8 52 23 13 78 12 87 -2z
m212 -3 c1 -1 -2 -22 -7 -48 -5 -31 -4 -69 5 -117 15 -77 13 -90 -15 -90 -26
0 -37 17 -50 78 -17 84 -15 169 7 181 14 8 48 6 60 -4z m-101 -7 c4 -7 8 -38
8 -68 1 -30 5 -79 9 -108 l9 -53 -29 7 c-40 9 -59 28 -72 73 -13 41 -16 144
-5 154 11 12 71 8 80 -5z"/>
<path d="M2143 2950 c-13 -5 -23 -15 -23 -22 0 -7 -24 -53 -54 -103 -34 -57
-58 -111 -65 -146 -17 -83 2 -116 35 -61 41 66 68 102 133 177 75 86 82 110
39 148 -22 19 -32 20 -65 7z m70 -43 c8 -25 4 -33 -40 -80 -27 -29 -64 -73
-83 -99 -18 -27 -35 -46 -38 -43 -4 3 32 64 96 163 8 12 10 22 4 22 -11 0 -84
-110 -115 -173 -10 -22 -20 -37 -23 -35 -9 10 20 78 66 154 27 45 50 86 50 91
0 18 25 34 49 31 17 -2 27 -12 34 -31z"/>
<path d="M2551 2894 c-57 -15 -130 -52 -170 -85 -37 -31 -16 -35 24 -5 19 15
61 39 93 54 54 25 65 27 205 27 81 0 147 3 147 6 0 22 -220 24 -299 3z"/>
<path d="M2265 2599 c-59 -52 -67 -147 -15 -194 25 -22 106 -31 152 -16 149
49 105 241 -56 241 -36 0 -52 -6 -81 -31z m157 -5 c30 -16 58 -61 58 -94 0
-29 -28 -68 -61 -86 -42 -21 -131 -18 -160 5 -32 26 -35 117 -4 151 43 49 102
57 167 24z"/>
<path d="M1715 2606 c-55 -24 -81 -80 -64 -141 30 -109 237 -102 265 9 9 39
-29 111 -70 130 -41 19 -90 20 -131 2z m145 -34 c16 -16 32 -46 36 -67 6 -32
3 -41 -23 -66 -35 -35 -83 -45 -141 -30 -65 18 -90 82 -55 141 21 37 47 48
106 49 40 1 53 -4 77 -27z"/>
<path d="M1988 2394 c-48 -24 -76 -55 -122 -135 l-26 -46 122 -12 c68 -7 155
-16 193 -21 39 -4 72 -7 74 -5 11 11 -58 123 -104 170 -76 76 -81 77 -137 49z
m98 -36 c30 -27 41 -44 32 -46 -44 -14 -63 -67 -33 -92 23 -19 11 -23 -33 -9
-38 11 -40 13 -31 37 19 50 -43 101 -82 66 -21 -19 -24 -45 -9 -75 10 -17 7
-19 -19 -19 -16 0 -32 4 -35 8 -10 17 64 118 106 144 24 14 46 27 51 27 4 1
28 -18 53 -41z m-88 -60 c30 -30 -11 -85 -44 -57 -14 12 -19 51 -7 62 10 11
38 8 51 -5z m157 -43 c0 -24 -5 -31 -24 -33 -32 -5 -54 23 -40 50 7 13 19 18
37 16 23 -2 27 -8 27 -33z m45 -57 c0 -10 -34 -10 -43 -1 -4 3 1 12 11 19 16
12 31 3 32 -18z"/>
<path d="M723 2355 c-29 -29 -53 -59 -53 -67 0 -22 126 -167 329 -378 l179
-186 -19 -23 c-20 -25 -25 -86 -10 -110 10 -15 18 -11 109 55 25 19 19 23 132
-83 56 -52 454 -336 538 -383 34 -19 62 -37 62 -40 1 -18 -527 -296 -695 -366
-159 -66 -143 -69 115 -19 200 38 208 41 569 224 l154 78 161 -81 c340 -172
372 -185 569 -222 175 -33 226 -40 214 -28 -3 3 -55 27 -114 53 -208 91 -683
342 -683 361 0 4 12 12 28 19 72 33 464 314 585 419 49 42 92 78 96 80 4 1 30
-16 58 -38 59 -46 68 -48 77 -17 10 39 6 68 -13 96 l-19 27 117 119 c119 120
322 342 368 402 16 21 23 39 18 52 -6 21 -105 111 -121 111 -5 0 -124 -118
-265 -262 l-255 -262 -56 32 c-66 38 -88 40 -89 10 -3 -52 5 -74 37 -114 l34
-41 -95 -82 c-137 -118 -206 -169 -430 -316 -110 -72 -205 -135 -211 -138 -11
-6 -291 173 -460 295 -50 36 -137 105 -193 153 l-101 87 20 27 c10 15 26 34
35 41 10 8 15 29 15 61 0 60 -10 62 -89 18 l-56 -32 -255 262 c-141 143 -263
260 -271 260 -7 -1 -38 -25 -66 -54z m329 -224 c215 -219 253 -263 245 -278
-8 -15 -6 -14 14 3 39 35 118 76 130 69 38 -24 -63 -158 -201 -268 l-75 -60
-3 37 c-3 32 4 46 52 105 63 77 76 106 18 40 l-39 -43 -89 90 c-175 175 -414
440 -414 460 0 10 91 104 101 104 4 0 121 -117 261 -259z m2480 212 c26 -26
48 -52 48 -58 0 -18 -253 -298 -419 -463 l-83 -84 -36 34 c-39 35 -30 21 31
-53 32 -39 38 -53 35 -84 l-3 -38 -76 60 c-105 84 -209 205 -209 243 0 18 5
30 13 30 15 0 100 -52 137 -84 l25 -21 -18 21 c-18 21 -15 24 239 283 141 143
259 261 262 261 4 0 28 -21 54 -47z m-562 -668 c0 -6 -99 -98 -115 -108 -9 -4
-28 8 -55 35 l-41 42 53 48 c29 26 56 47 61 48 4 0 7 7 7 16 0 10 17 -1 45
-30 25 -26 45 -49 45 -51z m-1502 8 l43 -38 -39 -39 c-21 -22 -42 -39 -47 -39
-4 0 -35 24 -70 54 l-63 53 42 41 c47 47 43 48 134 -32z m112 -96 c27 -23 157
-114 289 -202 132 -88 241 -163 241 -167 0 -3 -22 -20 -49 -36 l-48 -30 -49
27 c-68 37 -181 114 -367 248 l-157 114 37 44 c21 25 42 44 46 45 5 0 31 -19
57 -43z m1212 -1 c28 -33 35 -46 25 -54 -33 -26 -314 -226 -379 -269 -137 -93
-393 -236 -588 -331 -248 -120 -263 -125 -395 -151 -60 -12 -118 -23 -127 -25
-10 -2 -18 -3 -18 -1 0 1 82 43 183 92 100 50 248 126 328 170 160 88 797 507
869 572 25 22 50 40 55 40 6 0 27 -19 47 -43z m-420 -527 c68 -38 226 -122
353 -185 126 -62 221 -114 210 -114 -11 0 -69 10 -130 21 -85 17 -140 35 -240
82 -204 94 -405 196 -405 206 0 7 74 58 87 61 1 0 57 -32 125 -71z"/>
<path d="M858 2175 c-18 -40 3 -75 45 -75 38 0 57 15 57 46 0 54 -80 76 -102
29z m63 5 c26 -14 25 -57 -1 -65 -39 -12 -66 35 -38 63 15 15 15 15 39 2z"/>
<path d="M1030 2009 c-26 -47 15 -98 63 -80 33 13 43 46 23 76 -21 32 -70 34
-86 4z m61 1 c36 -20 13 -76 -28 -68 -22 4 -29 43 -13 64 15 17 16 17 41 4z"/>
<path d="M3320 2181 c-24 -45 -5 -81 42 -81 38 0 65 41 50 75 -15 32 -76 36
-92 6z m68 -3 c28 -28 1 -75 -38 -63 -33 11 -21 75 15 75 6 0 16 -5 23 -12z"/>
<path d="M3154 2005 c-20 -30 -10 -63 23 -76 48 -18 89 33 63 80 -16 30 -65
28 -86 -4z m66 1 c16 -21 9 -60 -13 -64 -40 -8 -64 47 -29 67 23 14 28 13 42
-3z"/>
</g>
</svg>
